<svg width="512" height="512" xmlns="http://www.w3.org/2000/svg" clip-rule="evenodd">

 <g>
  <title>background</title>
  <rect fill="none" id="canvas_background" height="402" width="582" y="-1" x="-1"/>
 </g>
 <g>
  <title fill="#ffffff">Layer 1</title>
  <path fill="#ffffff" id="svg_3" fill-rule="nonzero" d="m107.57,323.544c0,29.603 -24.182,53.785 -53.785,53.785c-29.602,0 -53.785,-24.182 -53.785,-53.785c0,-29.602 24.183,-53.785 53.785,-53.785l53.785,0l0,53.785z"/>
  <path fill="#ffffff" id="svg_4" fill-rule="nonzero" d="m134.671,323.544c0,-29.602 24.183,-53.785 53.785,-53.785c29.603,0 53.785,24.183 53.785,53.785l0,134.671c0,29.603 -24.182,53.785 -53.785,53.785c-29.602,0 -53.785,-24.182 -53.785,-53.785l0,-134.671z"/>
  <path fill="#ffffff" id="svg_6" fill-rule="nonzero" d="m188.456,107.57c-29.602,0 -53.785,-24.182 -53.785,-53.785c0,-29.602 24.183,-53.785 53.785,-53.785c29.603,0 53.785,24.183 53.785,53.785l0,53.785l-53.785,0z"/>
  <path fill="#ffffff" id="svg_7" fill-rule="nonzero" d="m188.456,134.671c29.603,0 53.785,24.183 53.785,53.785c0,29.603 -24.182,53.785 -53.785,53.785l-134.671,0c-29.602,0 -53.785,-24.182 -53.785,-53.785c0,-29.602 24.183,-53.785 53.785,-53.785l134.671,0z"/>
  <path fill="#ffffff" id="svg_9" fill-rule="nonzero" d="m404.43,188.456c0,-29.602 24.183,-53.785 53.785,-53.785c29.603,0 53.785,24.183 53.785,53.785c0,29.603 -24.182,53.785 -53.785,53.785l-53.785,0l0,-53.785z"/>
  <path fill="#ffffff" id="svg_10" fill-rule="nonzero" d="m377.329,188.456c0,29.603 -24.182,53.785 -53.785,53.785c-29.602,0 -53.785,-24.182 -53.785,-53.785l0,-134.671c0,-29.602 24.183,-53.785 53.785,-53.785c29.603,0 53.785,24.183 53.785,53.785l0,134.671z"/>
  <path fill="#ffffff" id="svg_12" fill-rule="nonzero" d="m323.544,404.43c29.603,0 53.785,24.183 53.785,53.785c0,29.603 -24.182,53.785 -53.785,53.785c-29.602,0 -53.785,-24.182 -53.785,-53.785l0,-53.785l53.785,0z"/>
  <path fill="#ffffff" id="svg_13" fill-rule="nonzero" d="m323.544,377.329c-29.602,0 -53.785,-24.182 -53.785,-53.785c0,-29.602 24.183,-53.785 53.785,-53.785l134.671,0c29.603,0 53.785,24.183 53.785,53.785c0,29.603 -24.182,53.785 -53.785,53.785l-134.671,0z"/>
 </g>
</svg>